<svg version="1.2" xmlns="http://www.w3.org/2000/svg" viewBox="0 0 691 183" width="691" height="183"><style>.a{fill:#fff}</style><path class="a" d="m649.6 48.7c0 3.2-2.7 6-5.9 6-3.2 0-5.9-2.8-5.9-6 0-3.2 2.7-5.9 5.9-5.9 3.2 0 5.9 2.7 5.9 5.9zm-0.7 0c0-3-2.2-5.2-5.2-5.2-2.7 0-5.2 2.2-5.2 5.2 0 3 2.2 5.2 5.2 5.2 3 0 5.2-2.2 5.2-5.2zm-4.2 0.5l1.7 2.7h-1.5l-1.7-2.7h-1v2.7h-0.7v-6.4h2.4c1 0 2 0.7 2 2 0 1-0.2 1.5-1.2 1.7zm-2-0.7h1.2c0.5 0 1-0.5 1-1 0-0.5-0.5-1-1-1h-1.2zm-217 13.6h9v53.7h-9zm-32.6-1c-6 0-11.4 2.2-15.7 5.7v-4.5h-8.9v53.7h8.9v-30.5c0-8.6 7-15.5 15.7-15.5 8.6 0 15.6 6.9 15.6 15.5v30.5h8.9v-30.5c0-13.6-10.9-24.4-24.5-24.4zm-42.9 1h8.9v51.6c0 15.6-13.6 28-28 28-13.3 0-23.2-8.2-26.7-19.6h9.6c3 6.2 9 10.4 17.1 10.4 9.7 0 19.1-8.6 19.1-19v-4.2c-4.9 4.7-11.6 7.4-19.1 7.4-15.6 0-28-12.6-28-27.9 0-15.6 12.7-28 28-28 7.5 0 14.2 3 19.1 7.4zm0 27c0-10.6-8.7-19-19.1-19-10.6 0-19 8.6-19 19 0 10.6 8.6 19 19 19 10.7 0 19.1-8.4 19.1-19zm-138.7-19c7.7 0 14.4 4.4 17.3 11.1h9.7c-3.5-11.6-14.1-20.1-27-20.1-15.6 0-28.2 12.4-28.2 28 0 15.6 12.6 27.9 28 27.9 12.6 0 23.5-8.4 27-20h-9.7c-3 6.4-9.7 11.1-17.3 11.1-10.7 0-19.1-8.6-19.1-19 0-10.6 8.7-19 19.3-19zm87.2 19c0 15.6-12.6 27.9-28 27.9-15.6 0-28-12.6-28-27.9 0-15.6 12.6-28 28-28 15.6 0 28 12.4 28 28zm-8.9 0c0-10.6-8.7-19-19.1-19-10.6 0-19.1 8.6-19.1 19 0 10.6 8.7 19 19.1 19 10.4 0 19.1-8.4 19.1-19zm293.7-28c-5.9 0-11.4 2.3-15.6 5.7v-4.4h-8.9v53.6h8.9v-30.4c0-8.6 6.9-15.5 15.6-15.5 8.7 0 15.6 6.9 15.6 15.5v30.4h8.9v-30.4c0-13.6-10.9-24.5-24.5-24.5zm-42.6 1.3h8.9v53.6h-8.9v-6.4c-4.9 4.7-11.6 7.4-19.1 7.4-15.6 0-27.9-12.6-27.9-27.9 0-15.6 12.6-28 27.9-28 7.5 0 14.2 3 19.1 7.5zm0 26.7c0-10.7-8.7-19.1-19.1-19.1-10.6 0-19 8.7-19 19.1 0 10.6 8.6 19 19 19 10.4 0 19.1-8.4 19.1-19zm97.3-17.8v-8.9h-13.3v-14.6h-8.9v50.4c0 9.9 7.9 17.8 17.8 17.8h4.4v-8.9h-4.4c-5 0-8.9-3.9-8.9-8.9v-26.9zm-207.8-28.5c-3.2 0-6 2.8-6 6 0 3.2 2.8 5.9 6 5.9 3.2 0 5.9-2.7 5.9-5.9 0-3.2-2.7-6-5.9-6zm58.2 19.6h-44.8v8.9h33.1l-33.1 35.8v8.9h44.8v-8.9h-33.2l33.2-35.8z"/><path class="a" d="m40.9 90.5l34.4 49.5 38.4-23-18.8-26.5zm35.9 51.9h53l36.4-53.4zm-36.2-54.6h54l18.8-26.5-38.4-23zm36.2-51.9l89.4 53.2-36.4-53.2z"/></svg>